<svg width="98" height="98" viewBox="0 0 98 98" fill="none" xmlns="http://www.w3.org/2000/svg">
<circle cx="49" cy="49" r="38" fill="url(#paint0_radial_6_32)"/>
<path d="M26.3196 50.6147C26.8566 51.1516 27.5849 51.4533 28.3442 51.4533C29.1036 51.4533 29.8319 51.1516 30.3688 50.6147C30.9058 50.0777 31.2074 49.3495 31.2074 48.5901C31.2074 47.8307 30.9058 47.1025 30.3688 46.5655C29.8319 46.0286 29.1036 45.7269 28.3442 45.7269C27.5849 45.7269 26.8566 46.0286 26.3196 46.5655C25.7827 47.1025 25.481 47.8307 25.481 48.5901C25.481 49.3495 25.7827 50.0777 26.3196 50.6147ZM46.5655 50.6147C47.1025 51.1516 47.8307 51.4533 48.5901 51.4533C49.3495 51.4533 50.0777 51.1516 50.6147 50.6147C51.1516 50.0777 51.4533 49.3495 51.4533 48.5901C51.4533 47.8307 51.1516 47.1025 50.6147 46.5655C50.0777 46.0286 49.3495 45.7269 48.5901 45.7269C47.8307 45.7269 47.1025 46.0286 46.5655 46.5655C46.0286 47.1025 45.7269 47.8307 45.7269 48.5901C45.7269 49.3495 46.0286 50.0777 46.5655 50.6147ZM66.8114 50.6147C67.3483 51.1516 68.0766 51.4533 68.836 51.4533C69.5953 51.4533 70.3236 51.1516 70.8606 50.6147C71.3975 50.0777 71.6992 49.3495 71.6992 48.5901C71.6992 47.8307 71.3975 47.1025 70.8606 46.5655C70.3236 46.0286 69.5953 45.7269 68.836 45.7269C68.0766 45.7269 67.3483 46.0286 66.8114 46.5655C66.2744 47.1025 65.9728 47.8307 65.9728 48.5901C65.9728 49.3495 66.2744 50.0777 66.8114 50.6147Z" stroke="white" stroke-width="3.75" stroke-linecap="round" stroke-linejoin="round"/>
<defs>
<radialGradient id="paint0_radial_6_32" cx="0" cy="0" r="1" gradientUnits="userSpaceOnUse" gradientTransform="translate(49 49) rotate(90) scale(38)">
<stop stop-color="#064A26"/>
<stop offset="1" stop-color="#066633" stop-opacity="0.7"/>
</radialGradient>
</defs>
</svg>
