<svg width="76" height="76" viewBox="0 0 76 76" fill="none" xmlns="http://www.w3.org/2000/svg">
<circle cx="38" cy="38" r="38" fill="url(#paint0_radial_4_23)"/>
<path d="M55.9586 27.8971L48.1029 20.0432C47.8418 19.7819 47.5317 19.5747 47.1904 19.4333C46.8492 19.2919 46.4834 19.2192 46.114 19.2192C45.7446 19.2192 45.3788 19.2919 45.0375 19.4333C44.6963 19.5747 44.3862 19.7819 44.125 20.0432L22.4494 41.7187C22.1871 41.979 21.9792 42.2887 21.8376 42.63C21.6961 42.9713 21.6238 43.3374 21.625 43.7068V51.5625C21.625 52.3084 21.9213 53.0238 22.4488 53.5512C22.9762 54.0787 23.6916 54.375 24.4375 54.375H32.2932C32.6627 54.3762 33.0287 54.3039 33.37 54.1624C33.7113 54.0208 34.021 53.8129 34.2813 53.5506L48.9889 38.8447L49.6006 41.2881L43.1319 47.7551C42.868 48.0187 42.7196 48.3764 42.7195 48.7494C42.7193 49.1224 42.8673 49.4802 43.131 49.744C43.3946 50.0079 43.7523 50.1562 44.1253 50.1564C44.4983 50.1566 44.8561 50.0086 45.1199 49.7449L52.1512 42.7137C52.3232 42.542 52.4477 42.3287 52.5127 42.0946C52.5777 41.8605 52.5809 41.6135 52.5221 41.3777L51.3092 36.5244L55.9586 31.875C56.2198 31.6138 56.4271 31.3037 56.5684 30.9625C56.7098 30.6212 56.7826 30.2554 56.7826 29.886C56.7826 29.5166 56.7098 29.1509 56.5684 28.8096C56.4271 28.4683 56.2198 28.1582 55.9586 27.8971ZM24.4375 46.5193L29.4807 51.5625H24.4375V46.5193ZM32.875 50.9807L25.0194 43.125L39.9063 28.2381L47.7619 36.0937L32.875 50.9807ZM49.75 34.1057L41.8961 26.25L46.1149 22.0312L53.9688 29.8869L49.75 34.1057Z" fill="white"/>
<defs>
<radialGradient id="paint0_radial_4_23" cx="0" cy="0" r="1" gradientUnits="userSpaceOnUse" gradientTransform="translate(38 38) rotate(90) scale(38)">
<stop stop-color="#064A26"/>
<stop offset="1" stop-color="#066633" stop-opacity="0.7"/>
</radialGradient>
</defs>
</svg>
