<svg width="76" height="76" viewBox="0 0 76 76" fill="none" xmlns="http://www.w3.org/2000/svg">
<circle cx="38" cy="38" r="38" fill="url(#paint0_radial_4_24)"/>
<path d="M51.625 46.875V37.125C50.6875 37.3125 49.75 37.5 48.8125 37.5H47.875V48.75H29.125V35.625C29.125 30.375 33.25 26.25 38.5 26.25C38.6875 23.8125 39.8125 21.75 41.3125 20.0625C40.75 19.3125 39.625 18.75 38.5 18.75C36.4375 18.75 34.75 20.4375 34.75 22.5V23.0625C29.125 24.75 25.375 29.8125 25.375 35.625V46.875L21.625 50.625V52.5H55.375V50.625L51.625 46.875ZM34.75 54.375C34.75 56.4375 36.4375 58.125 38.5 58.125C40.5625 58.125 42.25 56.4375 42.25 54.375H34.75ZM55.375 27.1875C55.375 30.75 52.375 33.75 48.8125 33.75C45.25 33.75 42.25 30.75 42.25 27.1875C42.25 23.625 45.25 20.625 48.8125 20.625C52.375 20.625 55.375 23.625 55.375 27.1875Z" fill="white"/>
<defs>
<radialGradient id="paint0_radial_4_24" cx="0" cy="0" r="1" gradientUnits="userSpaceOnUse" gradientTransform="translate(38 38) rotate(90) scale(38)">
<stop stop-color="#064A26"/>
<stop offset="1" stop-color="#066633" stop-opacity="0.7"/>
</radialGradient>
</defs>
</svg>
