<svg width="76" height="76" viewBox="0 0 76 76" fill="none" xmlns="http://www.w3.org/2000/svg">
<circle cx="38" cy="38" r="38" fill="url(#paint0_radial_4_22)"/>
<path d="M55.5625 38.4375L58.1875 41.0812L45.9438 53.4375L39.4375 46.875L42.0625 44.2313L45.9438 48.1313L55.5625 38.4375ZM34.75 46.875L40.375 52.5H21.625V48.75C21.625 44.6062 28.3375 41.25 36.625 41.25L40.1688 41.4562L34.75 46.875ZM36.625 22.5C38.6141 22.5 40.5218 23.2902 41.9283 24.6967C43.3348 26.1032 44.125 28.0109 44.125 30C44.125 31.9891 43.3348 33.8968 41.9283 35.3033C40.5218 36.7098 38.6141 37.5 36.625 37.5C34.6359 37.5 32.7282 36.7098 31.3217 35.3033C29.9152 33.8968 29.125 31.9891 29.125 30C29.125 28.0109 29.9152 26.1032 31.3217 24.6967C32.7282 23.2902 34.6359 22.5 36.625 22.5Z" fill="white"/>
<defs>
<radialGradient id="paint0_radial_4_22" cx="0" cy="0" r="1" gradientUnits="userSpaceOnUse" gradientTransform="translate(38 38) rotate(90) scale(38)">
<stop stop-color="#064A26"/>
<stop offset="1" stop-color="#066633" stop-opacity="0.7"/>
</radialGradient>
</defs>
</svg>
